<svg width="61" height="18" viewBox="0 0 61 18" fill="none" xmlns="http://www.w3.org/2000/svg">
<path d="M11.0322 17H9.66723L4.17723 8.675V17H2.81223V6.53H4.17723L9.66723 14.84V6.53H11.0322V17ZM14.0641 7.445C13.8041 7.445 13.5841 7.355 13.4041 7.175C13.2241 6.995 13.1341 6.775 13.1341 6.515C13.1341 6.255 13.2241 6.035 13.4041 5.855C13.5841 5.675 13.8041 5.585 14.0641 5.585C14.3141 5.585 14.5241 5.675 14.6941 5.855C14.8741 6.035 14.9641 6.255 14.9641 6.515C14.9641 6.775 14.8741 6.995 14.6941 7.175C14.5241 7.355 14.3141 7.445 14.0641 7.445ZM14.7241 8.78V17H13.3591V8.78H14.7241ZM20.6355 17.135C19.8655 17.135 19.1655 16.96 18.5355 16.61C17.9155 16.26 17.4255 15.765 17.0655 15.125C16.7155 14.475 16.5405 13.725 16.5405 12.875C16.5405 12.035 16.7205 11.295 17.0805 10.655C17.4505 10.005 17.9505 9.51 18.5805 9.17C19.2105 8.82 19.9155 8.645 20.6955 8.645C21.4755 8.645 22.1805 8.82 22.8105 9.17C23.4405 9.51 23.9355 10 24.2955 10.64C24.6655 11.28 24.8505 12.025 24.8505 12.875C24.8505 13.725 24.6605 14.475 24.2805 15.125C23.9105 15.765 23.4055 16.26 22.7655 16.61C22.1255 16.96 21.4155 17.135 20.6355 17.135ZM20.6355 15.935C21.1255 15.935 21.5855 15.82 22.0155 15.59C22.4455 15.36 22.7905 15.015 23.0505 14.555C23.3205 14.095 23.4555 13.535 23.4555 12.875C23.4555 12.215 23.3255 11.655 23.0655 11.195C22.8055 10.735 22.4655 10.395 22.0455 10.175C21.6255 9.945 21.1705 9.83 20.6805 9.83C20.1805 9.83 19.7205 9.945 19.3005 10.175C18.8905 10.395 18.5605 10.735 18.3105 11.195C18.0605 11.655 17.9355 12.215 17.9355 12.875C17.9355 13.545 18.0555 14.11 18.2955 14.57C18.5455 15.03 18.8755 15.375 19.2855 15.605C19.6955 15.825 20.1455 15.935 20.6355 15.935ZM28.0102 10.115C28.2502 9.645 28.5902 9.28 29.0302 9.02C29.4802 8.76 30.0252 8.63 30.6652 8.63V10.04H30.3052C28.7752 10.04 28.0102 10.87 28.0102 12.53V17H26.6452V8.78H28.0102V10.115Z" fill="white"/>
<path d="M38.3909 11.6C39.0009 11.73 39.4909 12.035 39.8609 12.515C40.2309 12.985 40.4159 13.525 40.4159 14.135C40.4159 15.015 40.1059 15.715 39.4859 16.235C38.8759 16.745 38.0209 17 36.9209 17H32.0159V6.47H36.7559C37.8259 6.47 38.6609 6.715 39.2609 7.205C39.8709 7.695 40.1759 8.36 40.1759 9.2C40.1759 9.82 40.0109 10.335 39.6809 10.745C39.3609 11.155 38.9309 11.44 38.3909 11.6ZM34.5809 10.73H36.2609C36.6809 10.73 37.0009 10.64 37.2209 10.46C37.4509 10.27 37.5659 9.995 37.5659 9.635C37.5659 9.275 37.4509 9 37.2209 8.81C37.0009 8.62 36.6809 8.525 36.2609 8.525H34.5809V10.73ZM36.4709 14.93C36.9009 14.93 37.2309 14.835 37.4609 14.645C37.7009 14.445 37.8209 14.16 37.8209 13.79C37.8209 13.42 37.6959 13.13 37.4459 12.92C37.2059 12.71 36.8709 12.605 36.4409 12.605H34.5809V14.93H36.4709ZM45.7136 17.12C44.8936 17.12 44.1536 16.945 43.4936 16.595C42.8436 16.245 42.3286 15.745 41.9486 15.095C41.5786 14.445 41.3936 13.685 41.3936 12.815C41.3936 11.955 41.5836 11.2 41.9636 10.55C42.3436 9.89 42.8636 9.385 43.5236 9.035C44.1836 8.685 44.9236 8.51 45.7436 8.51C46.5636 8.51 47.3036 8.685 47.9636 9.035C48.6236 9.385 49.1436 9.89 49.5236 10.55C49.9036 11.2 50.0936 11.955 50.0936 12.815C50.0936 13.675 49.8986 14.435 49.5086 15.095C49.1286 15.745 48.6036 16.245 47.9336 16.595C47.2736 16.945 46.5336 17.12 45.7136 17.12ZM45.7136 14.9C46.2036 14.9 46.6186 14.72 46.9586 14.36C47.3086 14 47.4836 13.485 47.4836 12.815C47.4836 12.145 47.3136 11.63 46.9736 11.27C46.6436 10.91 46.2336 10.73 45.7436 10.73C45.2436 10.73 44.8286 10.91 44.4986 11.27C44.1686 11.62 44.0036 12.135 44.0036 12.815C44.0036 13.485 44.1636 14 44.4836 14.36C44.8136 14.72 45.2236 14.9 45.7136 14.9ZM56.4044 17L54.7994 14.675L53.4494 17H50.6744L53.4344 12.725L50.5994 8.63H53.4794L55.0844 10.94L56.4344 8.63H59.2094L56.4044 12.845L59.2844 17H56.4044Z" fill="#61ABEC"/>
</svg>
